<?xml version="1.0" encoding="utf-8"?>
<!-- Generator: Adobe Illustrator 23.0.1, SVG Export Plug-In . SVG Version: 6.00 Build 0)  -->
<svg version="1.1" xmlns="http://www.w3.org/2000/svg" xmlns:xlink="http://www.w3.org/1999/xlink" x="0px" y="0px"
	 viewBox="0 0 135 135" style="enable-background:new 0 0 135 135;" xml:space="preserve">
<style type="text/css">
	.st0{fill:#00BD8E;}
	.st1{fill:#00FF85;}
</style>
<g id="Layer_2">
	<path class="st0" d="M49.6,125.41L48.9,57.7c-0.05-4.57,3.62-8.31,8.18-8.35l21.46-0.22c4.57-0.05,8.31,3.62,8.35,8.18l0.7,67.71
		c0.05,4.57-3.62,8.31-8.18,8.35l-21.46,0.22C53.39,133.64,49.65,129.98,49.6,125.41z"/>
	<path class="st0" d="M56.96,49.48l67.71-0.7c4.57-0.05,8.31,3.62,8.35,8.18l0.22,21.46c0.05,4.57-3.62,8.31-8.18,8.35l-67.71,0.7
		c-4.57,0.05-8.31-3.62-8.35-8.18l-0.22-21.46C48.73,53.26,52.4,49.52,56.96,49.48z"/>
</g>
<g id="Layer_1">
	<path class="st1" d="M86.25,11.27v67.71c0,4.57-3.7,8.27-8.27,8.27H56.52c-4.57,0-8.27-3.7-8.27-8.27V11.27
		c0-4.57,3.7-8.27,8.27-8.27h21.46C82.55,3,86.25,6.7,86.25,11.27z"/>
	<path class="st1" d="M78.11,87.13H10.39c-4.57,0-8.27-3.7-8.27-8.27V57.39c0-4.57,3.7-8.27,8.27-8.27h67.71
		c4.57,0,8.27,3.7,8.27,8.27v21.46C86.38,83.42,82.67,87.13,78.11,87.13z"/>
</g>
</svg>
